#!OML:ASF E:\emotionWalksFemale\Project 1\Capture day 1\Session 1\Female1.ASF
:FULLY-SPECIFIED
:DEGREES
173
root 8.61003 13.9124 21.6368 200.19 1.04722 -177.78
lowerback 16.7827 1.62707 1.85277
upperback -2.66375 2.6057 0.193762
thorax -12.3476 1.0998 -1.54288
lowerneck -9.71533 -2.30772 -7.00821
upperneck -13.776 -3.52873 8.12515
head -2.55115 -2.29865 3.96943
rclavicle -1.65985e-014 -5.36719e-015
rhumerus -50.1409 -2.37055 -81.7118
rradius 31.0785
rwrist 19.5968
rhand -5.65927 -50.7617
rfingers 7.12502
rthumb 20.1599 -79.7357
lclavicle -1.65985e-014 -5.36719e-015
lhumerus -52.6219 6.12965 77.0163
lradius 30.8075
lwrist -11.0729
lhand -1.47576 -40.6619
lfingers 7.12502
lthumb 24.1761 -12.1656
rfemur -47.1331 2.3815 26.8164
rtibia 68.8489
rfoot -30.664 -17.0691
rtoes -6.07977
lfemur -48.9309 0.247687 -21.2945
ltibia 69.552
lfoot -37.3474 3.30301
ltoes -22.9032
174
root 8.62038 13.8896 21.6148 199.929 0.345032 -177.932
lowerback 17.9439 1.39885 1.91375
upperback -2.81727 2.35611 0.266527
thorax -13.2223 0.963325 -1.47321
lowerneck -9.47869 -2.33709 -7.1034
upperneck -14.3298 -3.53221 8.45398
head -2.45287 -2.34038 3.7606
rclavicle -4.62174e-015 6.75868e-015
rhumerus -50.4326 -2.381 -81.3529
rradius 32.0742
rwrist 19.1046
rhand -5.43422 -51.4077
rfingers 7.12502
rthumb 20.3762 -80.3587
lclavicle -4.62174e-015 6.75868e-015
lhumerus -52.4169 6.66772 76.8183
lradius 30.7654
lwrist -11.1635
lhand -1.78352 -41.0004
lfingers 7.12502
lthumb 23.881 -12.4651
rfemur -46.9479 1.6064 27.0486
rtibia 69.4565
rfoot -31.0913 -17.1112
rtoes -6.43561
lfemur -48.9819 0.0668816 -21.3174
ltibia 70.2304
lfoot -37.2082 3.09919
ltoes -23.6385
175
root 8.62811 13.8568 21.6022 200.026 0.0490708 -177.881
lowerback 18.114 1.28931 2.04682
upperback -2.64009 2.24641 0.276892
thorax -13.1171 0.907542 -1.50825
lowerneck -9.62221 -2.27613 -7.04569
upperneck -14.8066 -3.51077 8.51448
head -2.57524 -2.37234 3.78114
rclavicle -1.79403e-014 -5.1684e-015
rhumerus -48.7186 -4.0761 -80.0393
rradius 30.4142
rwrist 20.7115
rhand -5.20863 -51.0422
rfingers 7.12502
rthumb 20.5929 -79.9699
lclavicle -1.79403e-014 -5.1684e-015
lhumerus -51.4115 7.20701 76.6973
lradius 30.7105
lwrist -10.949
lhand -2.27292 -41.7212
lfingers 7.12502
lthumb 23.4116 -13.1253
rfemur -47.3065 1.138 27.3358
rtibia 70.1093
rfoot -31.1624 -16.9875
rtoes -6.44136
lfemur -49.4929 0.242108 -21.2727
ltibia 70.8797
lfoot -36.9358 2.54071
ltoes -23.0397
176
root 8.62866 13.829 21.5956 200.36 -0.0386742 -177.999
lowerback 18.1034 1.28252 2.05798
upperback -2.51966 2.22764 0.193479
thorax -12.968 0.898147 -1.59959
lowerneck -9.89738 -2.26683 -6.94362
upperneck -15.2259 -3.57215 8.44851
head -2.65914 -2.44311 3.75062
rclavicle 8.59744e-015 -1.33186e-014
rhumerus -47.5885 -5.07722 -79.2611
rradius 30.2951
rwrist 21.1292
rhand -4.71725 -51.4332
rfingers 7.12502
rthumb 21.0651 -80.309
lclavicle 8.59744e-015 -1.33186e-014
lhumerus -50.2158 7.71563 76.5987
lradius 30.6609
lwrist -10.89
lhand -2.69076 -41.8175
lfingers 7.12502
lthumb 23.0107 -13.1711
rfemur -48.0408 0.705581 27.3404
rtibia 70.7929
rfoot -30.9635 -16.8833
rtoes -6.51326
lfemur -50.2323 0.465231 -21.4841
ltibia 71.4966
lfoot -36.8369 1.82911
ltoes -21.7947
177
root 8.61867 13.8029 21.5912 200.868 -0.0202574 -178.591
lowerback 18.0671 1.28895 1.7322
upperback -2.5326 2.12918 -0.025313
thorax -12.9674 0.864222 -1.62884
lowerneck -9.75835 -2.23614 -6.91137
upperneck -15.8875 -3.60958 8.41186
head -2.87981 -2.50722 3.75495
rclavicle -1.63003e-014 5.96354e-015
rhumerus -46.595 -5.83871 -78.516
rradius 30.3708
rwrist 21.2664
rhand -4.60575 -51.4759
rfingers 7.12502
rthumb 21.1722 -80.3398
lclavicle -1.63003e-014 5.96354e-015
lhumerus -49.1301 8.09372 76.6277
lradius 30.7563
lwrist -10.896
lhand -2.47109 -40.6806
lfingers 7.12502
lthumb 23.2215 -12.0606
rfemur -49.0618 0.194797 26.7397
rtibia 71.6483
rfoot -30.983 -16.7165
rtoes -6.97295
lfemur -51.0415 0.405069 -22.2567
ltibia 72.0895
lfoot -36.9192 1.74143
ltoes -21.8699
178
root 8.6215 13.7679 21.5771 201.02 -0.043201 -178.558
lowerback 18.4816 1.34409 1.64545
upperback -2.65299 2.20292 0.0519556
thorax -13.3562 0.900006 -1.531
lowerneck -9.54344 -2.23396 -7.06822
upperneck -16.1886 -3.6138 8.47913
head -2.99923 -2.51845 3.81436
rclavicle -1.59028e-015 3.97569e-016
rhumerus -45.7784 -6.59999 -77.5006
rradius 30.1282
rwrist 21.8326
rhand -4.7874 -51.2961
rfingers 7.12502
rthumb 20.9977 -80.1794
lclavicle -1.59028e-015 3.97569e-016
lhumerus -48.3949 8.55547 76.6504
lradius 30.8413
lwrist -11.2247
lhand -1.72924 -39.9948
lfingers 7.12502
lthumb 23.9331 -11.4664
rfemur -49.5697 0.0939382 26.8351
rtibia 72.4268
rfoot -31.2314 -16.5437
rtoes -6.79228
lfemur -51.5175 0.622706 -22.2824
ltibia 72.7632
lfoot -37.0179 1.43661
ltoes -21.3597
179
root 8.62876 13.7202 21.593 201.853 -0.50621 -178.852
lowerback 18.3022 1.21399 1.50328
upperback -2.87622 1.96928 0.0407735
thorax -13.5214 0.787515 -1.39022
lowerneck -9.57325 -2.22443 -7.07568
upperneck -16.4324 -3.63238 8.48533
head -3.06719 -2.54684 3.8245
rclavicle 1.40143e-014 3.18055e-015
rhumerus -44.572 -7.24194 -76.7989
rradius 30.0329
rwrist 22.1862
rhand -4.81603 -51.7327
rfingers 7.12502
rthumb 20.9702 -80.6191
lclavicle 1.40143e-014 3.18055e-015
lhumerus -47.2501 9.39615 76.4369
lradius 30.696
lwrist -12.131
lhand -1.36936 -40.45
lfingers 7.12502
lthumb 24.2781 -11.9673
rfemur -51.1682 -0.443229 26.8191
rtibia 73.4335
rfoot -31.2773 -16.3774
rtoes -6.44849
lfemur -53.0345 0.298186 -22.4683
ltibia 73.4882
lfoot -36.7688 0.98353
ltoes -20.5464
180
root 8.62556 13.6876 21.5769 201.938 -0.532881 -178.922
lowerback 18.4701 1.20793 1.47791
upperback -2.77789 1.95629 0.0584116
thorax -13.5085 0.783659 -1.35508
lowerneck -9.5922 -2.19808 -7.11053
upperneck -16.825 -3.65072 8.44403
head -3.18365 -2.58292 3.82966
rclavicle 2.71341e-014 -5.96354e-015
rhumerus -43.2065 -7.42758 -76.4047
rradius 30.2759
rwrist 21.8538
rhand -4.78548 -52.7332
rfingers 7.12502
rthumb 20.9995 -81.6164
lclavicle 2.71341e-014 -5.96354e-015
lhumerus -45.8014 10.2559 76.3516
lradius 30.4075
lwrist -13.1731
lhand -1.73839 -41.4641
lfingers 7.12502
lthumb 23.9243 -12.9345
rfemur -51.5722 -0.781037 26.835
rtibia 74.2921
rfoot -31.3966 -16.042
rtoes -5.67562
lfemur -53.4026 0.400005 -22.5934
ltibia 74.1442
lfoot -36.8369 0.886256
ltoes -20.9447
181
root 8.62284 13.6487 21.5669 202.162 -0.43185 -178.879
lowerback 18.5485 1.26897 1.50623
upperback -2.76284 2.04558 0.0636131
thorax -13.534 0.821992 -1.39372
lowerneck -9.45697 -2.17272 -7.22826
upperneck -17.1919 -3.6424 8.50255
head -3.31337 -2.59771 3.88191
rclavicle 3.00165e-014 2.78299e-015
rhumerus -41.8335 -7.53091 -76.0471
rradius 30.4989
rwrist 21.4497
rhand -4.75285 -53.6674
rfingers 7.12502
rthumb 21.0309 -82.547
lclavicle 3.00165e-014 2.78299e-015
lhumerus -44.0795 11.0858 76.2763
lradius 29.8781
lwrist -14.213
lhand -2.50027 -42.1871
lfingers 7.12502
lthumb 23.1935 -13.5636
rfemur -52.1673 -0.981136 26.9295
rtibia 75.1727
rfoot -31.4892 -15.5876
rtoes -4.93909
lfemur -53.9652 0.68541 -22.6809
ltibia 74.8127
lfoot -36.8237 0.899606
ltoes -21.9596
